<svg width="110" height="28" viewBox="0 0 110 28" fill="none" xmlns="http://www.w3.org/2000/svg">
<path d="M110 13.8926C110 21.7777 103.953 27.8673 95.2002 27.8673H92.3975V23.4064H95.2002C101.05 23.4064 104.868 19.4678 104.868 13.972C104.868 8.47909 101.05 4.45729 95.2002 4.45729H89.7113V9.47401V23.4064V27.8673H84.8184V0H95.2002C103.953 0 110 6.00988 110 13.8927V13.8926Z" fill="#298C38"/>
<path fill-rule="evenodd" clip-rule="evenodd" d="M56.4609 13.8926C56.4609 21.7777 62.5081 27.8673 71.2611 27.8673H74.0636V23.4064H71.2611C65.411 23.4064 61.5931 19.4678 61.5931 13.972C61.5931 8.47909 65.4114 4.45729 71.2611 4.45729H76.7498V9.47401V23.4064V27.8673H81.6429V0H71.2611C62.508 0 56.4609 6.00988 56.4609 13.8927V13.8926Z" fill="#298C38"/>
<path fill-rule="evenodd" clip-rule="evenodd" d="M28.3135 13.8926L28.3139 13.9337L28.3135 13.9746C28.3135 21.6112 33.9886 27.4896 42.3011 27.8496V27.8498C42.4352 27.8556 42.57 27.8598 42.7053 27.8628C42.8408 27.8658 42.9769 27.8673 43.1137 27.8673H45.9164H53.4956V23.4099H48.6026H48.0957H45.9164V23.4064H43.1137C42.3827 23.4064 41.683 23.3449 41.0188 23.2264C36.3817 22.3837 33.462 18.7209 33.4464 13.9337C33.462 9.1463 36.3818 5.48346 41.0188 4.6409C41.6831 4.52238 42.3827 4.46083 43.1137 4.46083H45.9164V4.45729H48.6026V6.24891H53.4956V0H45.9164H43.1137C42.9769 0 42.8408 0.00153301 42.7053 0.00448111C42.5698 0.00742921 42.4352 0.0117924 42.3011 0.0175707V0.0176886C33.9886 0.37771 28.3135 6.25598 28.3135 13.8927V13.8926Z" fill="#298C38"/>
<path fill-rule="evenodd" clip-rule="evenodd" d="M0 13.8927C0 21.7778 6.0473 27.8674 14.8002 27.8674H17.6028V23.4065H14.8002C8.95023 23.4065 5.13229 19.468 5.13229 13.9721C5.13229 8.47921 8.95046 4.45741 14.8002 4.45741H20.289V9.47413V23.4065V27.8674H25.182V0.00012207H14.8002C6.04718 0.00012207 0 6.01 0 13.8929L0 13.8927Z" fill="#298C38"/>
</svg>
